<svg height="512pt" viewBox="-46 0 512 512" width="512pt" xmlns="http://www.w3.org/2000/svg"><path d="m360 230c0 5.523438-4.476562 10-10 10s-10-4.476562-10-10 4.476562-10 10-10 10 4.476562 10 10zm0 0"/><path d="m240 90c0 5.523438-4.476562 10-10 10s-10-4.476562-10-10 4.476562-10 10-10 10 4.476562 10 10zm0 0"/><path d="m220 462c0 5.523438-4.476562 10-10 10s-10-4.476562-10-10 4.476562-10 10-10 10 4.476562 10 10zm0 0"/><path d="m180 310c0 5.523438-4.476562 10-10 10s-10-4.476562-10-10 4.476562-10 10-10 10 4.476562 10 10zm0 0"/><path d="m220.5 159.289062c0 4.304688 2.753906 8.125 6.839844 9.488282l40.253906 13.417968 13.417969 40.257813c1.363281 4.082031 5.183593 6.835937 9.488281 6.835937s8.125-2.753906 9.488281-6.835937l13.417969-40.257813 40.253906-13.417968c4.085938-1.363282 6.839844-5.183594 6.839844-9.488282 0-4.304687-2.753906-8.125-6.839844-9.484374l-40.253906-13.421876-13.417969-40.253906c-1.363281-4.082031-5.183593-6.839844-9.488281-6.839844s-8.125 2.753907-9.488281 6.839844l-13.417969 40.253906-40.253906 13.421876c-4.085938 1.359374-6.839844 5.179687-6.839844 9.484374zm58.160156-5.511718c2.988282-.996094 5.332032-3.339844 6.328125-6.324219l5.511719-16.542969 5.511719 16.542969c.996093 2.984375 3.339843 5.328125 6.328125 6.324219l16.539062 5.511718-16.539062 5.515626c-2.988282.992187-5.332032 3.335937-6.328125 6.324218l-5.511719 16.539063-5.511719-16.539063c-.996093-2.988281-3.339843-5.332031-6.328125-6.324218l-16.539062-5.515626zm0 0"/><path d="m210 0c-115.792969 0-210 94.207031-210 210 0 47.847656 15.972656 93.371094 45.351562 130.359375-14.261718 2.207031-25.351562 14.550781-25.351562 29.640625 0 13.035156 8.359375 24.152344 20 28.28125v55.4375c-11.640625 4.128906-20 15.246094-20 28.28125 0 16.542969 13.457031 30 30 30h320c16.542969 0 30-13.457031 30-30 0-13.035156-8.359375-24.152344-20-28.28125v-55.421875c11.390625-4.019531 20-14.96875 20-28.296875 0-14.960938-11.007812-27.398438-25.351562-29.636719 29.378906-36.992187 45.351562-82.515625 45.351562-130.363281 0-115.792969-94.207031-210-210-210zm0 20c104.765625 0 190 85.234375 190 190 0 48.644531-18.238281 94.640625-51.441406 130h-277.117188c-33.203125-35.359375-51.441406-81.355469-51.441406-130 0-104.765625 85.234375-190 190-190zm160 472h-320c-5.515625 0-10-4.484375-10-10s4.484375-10 10-10h120c5.523438 0 10-4.476562 10-10s-4.476562-10-10-10h-110v-52h300v52h-110c-5.523438 0-10 4.476562-10 10s4.476562 10 10 10h120c5.515625 0 10 4.484375 10 10s-4.484375 10-10 10zm10-122c0 5.519531-4.476562 10-10 10h-320c-5.515625 0-10-4.484375-10-10 0-5.519531 4.476562-10 10-10h320c5.515625 0 10 4.484375 10 10zm0 0"/><path d="m89.785156 269.144531 11.839844 23.6875c1.691406 3.386719 5.15625 5.527344 8.941406 5.527344h.003906c3.785157 0 7.25-2.140625 8.941407-5.523437l11.851562-23.691407 23.675781-11.839843c3.390626-1.695313 5.53125-5.15625 5.53125-8.945313 0-3.785156-2.140624-7.25-5.53125-8.941406l-23.675781-11.839844-11.851562-23.691406c-1.695313-3.386719-5.15625-5.523438-8.941407-5.523438h-.003906c-3.785156 0-7.25 2.140625-8.941406 5.527344l-11.839844 23.6875-23.6875 11.839844c-3.386718 1.691406-5.527344 5.15625-5.527344 8.945312 0 3.785157 2.140626 7.25 5.527344 8.945313zm11.925782-25.167969c1.9375-.96875 3.507812-2.539062 4.472656-4.476562l4.390625-8.777344 4.394531 8.78125c.964844 1.933594 2.535156 3.503906 4.46875 4.472656l8.773438 4.382813-8.773438 4.386719c-1.933594.96875-3.503906 2.535156-4.46875 4.472656l-4.394531 8.78125-4.390625-8.777344c-.964844-1.9375-2.535156-3.507812-4.472656-4.476562l-8.773438-4.382813zm0 0"/><path d="m90 140h10v10c0 5.523438 4.476562 10 10 10s10-4.476562 10-10v-10h10c5.523438 0 10-4.476562 10-10s-4.476562-10-10-10h-10v-10c0-5.523438-4.476562-10-10-10s-10 4.476562-10 10v10h-10c-5.523438 0-10 4.476562-10 10s4.476562 10 10 10zm0 0"/><path d="m290 280h-10v-10c0-5.523438-4.476562-10-10-10s-10 4.476562-10 10v10h-10c-5.523438 0-10 4.476562-10 10s4.476562 10 10 10h10v10c0 5.523438 4.476562 10 10 10s10-4.476562 10-10v-10h10c5.523438 0 10-4.476562 10-10s-4.476562-10-10-10zm0 0"/></svg>