<svg height="512pt" viewBox="-60 0 512 512" width="512pt" xmlns="http://www.w3.org/2000/svg"><path d="m384 494.933594h-25.601562v-477.867188c-.007813-9.421875-7.644532-17.0546872-17.066407-17.066406h-290.132812c-9.421875.0117188-17.054688 7.644531-17.066407 17.066406v477.867188h-25.597656c-4.714844 0-8.535156 3.820312-8.535156 8.53125 0 4.714844 3.820312 8.535156 8.535156 8.535156h375.464844c4.710938 0 8.535156-3.820312 8.535156-8.535156 0-4.710938-3.824218-8.53125-8.535156-8.53125zm-332.800781 0v-477.867188h290.132812v477.867188zm0 0"/><path d="m315.203125 309.820312c.316406-.839843.496094-1.722656.53125-2.621093v-145.066407c0-65.980468-53.488281-119.464843-119.46875-119.464843s-119.464844 53.484375-119.464844 119.464843v145.066407c0 4.714843 3.820313 8.535156 8.53125 8.535156h175.414063c-4.695313 7.667969-5.976563 16.945313-3.535156 25.597656h-35.34375c-4.714844 0-8.535157 3.820313-8.535157 8.535157v110.933593c0 4.710938 3.820313 8.53125 8.535157 8.53125h85.332031c4.714843 0 8.535156-3.820312 8.535156-8.53125v-105.664062c11.578125-12.964844 11.347656-32.625-.53125-45.316407zm-16.535156-11.152343h-93.867188v-102.402344h93.867188zm0-136.535157v17.066407h-93.867188v-119.035157c53.011719 4.476563 93.785157 48.769532 93.867188 101.96875zm-110.933594-101.96875v119.035157h-93.867187v-17.066407c.078124-53.199218 40.855468-97.492187 93.867187-101.96875zm-93.867187 136.101563h93.867187v102.402344h-93.867187zm213.332031 136.535156c0 9.425781-7.640625 17.066407-17.066407 17.066407-9.425781 0-17.066406-7.640626-17.066406-17.066407s7.640625-17.066406 17.066406-17.066406c9.421876.011719 17.054688 7.644531 17.066407 17.066406zm-76.800781 119.464844v-93.867187h37.394531c8.34375 7.597656 20.007812 10.367187 30.875 7.324218v86.542969zm0 0"/><path d="m170.667969 341.332031h-85.335938c-4.710937 0-8.53125 3.820313-8.53125 8.535157v110.933593c0 4.710938 3.820313 8.53125 8.53125 8.53125h85.335938c4.710937 0 8.53125-3.820312 8.53125-8.53125v-110.933593c0-4.714844-3.820313-8.535157-8.53125-8.535157zm-8.535157 110.933594h-68.265624v-93.867187h68.265624zm0 0"/><path d="m128 128c2.261719.003906 4.433594-.898438 6.03125-2.5l17.070312-17.066406c3.230469-3.347656 3.1875-8.671875-.105468-11.960938-3.292969-3.292968-8.613282-3.339844-11.960938-.105468l-17.066406 17.066406c-2.441406 2.441406-3.171875 6.109375-1.851562 9.296875 1.320312 3.191406 4.433593 5.269531 7.882812 5.269531zm0 0"/><path d="m130.5 159.632812c1.601562 1.601563 3.769531 2.5 6.035156 2.5 2.261719 0 4.429688-.898437 6.03125-2.5l25.601563-25.601562c3.230469-3.347656 3.1875-8.667969-.105469-11.960938-3.292969-3.292968-8.613281-3.335937-11.960938-.101562l-25.601562 25.597656c-1.601562 1.601563-2.5 3.769532-2.5 6.035156 0 2.261719.898438 4.433594 2.5 6.03125zm0 0"/></svg>