<?xml version="1.0" encoding="iso-8859-1"?>
<!-- Generator: Adobe Illustrator 19.0.0, SVG Export Plug-In . SVG Version: 6.00 Build 0)  -->
<svg version="1.1" id="Capa_1" xmlns="http://www.w3.org/2000/svg" xmlns:xlink="http://www.w3.org/1999/xlink" x="0px" y="0px"
	 viewBox="0 0 512 512" style="enable-background:new 0 0 512 512;" xml:space="preserve">
<g>
	<g>
		<g>
			<path d="M352,16H160C71.676,16.101,0.101,87.676,0,176v64c0.101,88.323,71.676,159.899,160,160h56v88c0,4.418,3.582,8,8,8
				c2.122,0,4.156-0.844,5.656-2.344L323.312,400H352c88.324-0.101,159.899-71.677,160-160v-64
				C511.899,87.676,440.324,16.101,352,16z M496,240c-0.093,79.491-64.509,143.907-144,144h-32c-2.122,0-4.156,0.844-5.656,2.344
				L232,468.688V392c0-4.418-3.582-8-8-8h-64c-79.491-0.093-143.907-64.509-144-144v-64C16.093,96.509,80.509,32.093,160,32h192
				c79.491,0.093,143.907,64.509,144,144V240z"/>
			<path d="M256,144c17.673,0,32-14.327,32-32s-14.327-32-32-32c-17.673,0-32,14.327-32,32S238.327,144,256,144z M256,96
				c8.837,0,16,7.163,16,16s-7.163,16-16,16s-16-7.163-16-16S247.163,96,256,96z"/>
			<path d="M304,288h-16V168c0-4.418-3.582-8-8-8h-64c-4.418,0-8,3.582-8,8v32c0,4.418,3.582,8,8,8h24v80h-16c-4.418,0-8,3.582-8,8
				v32c0,4.418,3.582,8,8,8h80c4.418,0,8-3.582,8-8v-32C312,291.582,308.418,288,304,288z M296,320h-64v-16h16c4.418,0,8-3.582,8-8
				v-96c0-4.418-3.582-8-8-8h-24v-16h48v120c0,4.418,3.582,8,8,8h16V320z"/>
			<path d="M48,168h16c0-78.72,69.08-80,72-80V72C135.12,72,48,73.096,48,168z"/>
		</g>
	</g>
</g>
<g>
</g>
<g>
</g>
<g>
</g>
<g>
</g>
<g>
</g>
<g>
</g>
<g>
</g>
<g>
</g>
<g>
</g>
<g>
</g>
<g>
</g>
<g>
</g>
<g>
</g>
<g>
</g>
<g>
</g>
</svg>
