<svg height="511pt" viewBox="-28 0 511 511.99798" width="511pt" xmlns="http://www.w3.org/2000/svg"><path d="m287.710938 200.148438c-32.523438 10.527343-50.414063 45.550781-39.890626 78.070312 6.929688 21.398438 24.957032 37.394531 47.054688 41.742188.488281.097656.980469.144531 1.46875.144531 2.089844 0 4.113281-.863281 5.566406-2.421875 5.390625-5.78125 12.226563-10.128906 19.773438-12.570313 7.550781-2.445312 15.636718-2.929687 23.394531-1.402343 2.582031.507812 5.242187-.355469 7.035156-2.277344 15.355469-16.472656 20.59375-40 13.667969-61.394532-10.527344-32.523437-45.554688-50.417968-78.070312-39.890624zm55.832031 87.921874c-8.894531-1.078124-17.980469-.207031-26.542969 2.566407-8.5625 2.769531-16.4375 7.394531-23.011719 13.476562-14.917969-4.261719-26.867187-15.6875-31.6875-30.578125-7.945312-24.539062 5.554688-50.964844 30.09375-58.90625 4.742188-1.535156 9.609375-2.296875 14.457031-2.296875 7.296876 0 14.542969 1.726563 21.230469 5.144531 11.125 5.683594 19.371094 15.359376 23.21875 27.246094 4.820313 14.894532 1.832031 31.15625-7.757812 43.347656zm0 0"/><path d="m305.75 233.300781c-14.335938 0-25.996094 11.660157-25.996094 25.992188 0 14.335937 11.660156 25.996093 25.996094 25.996093 14.332031 0 25.992188-11.660156 25.992188-25.996093 0-14.332031-11.660157-25.992188-25.992188-25.992188zm0 36.773438c-5.945312 0-10.78125-4.835938-10.78125-10.78125 0-5.941407 4.835938-10.777344 10.78125-10.777344 5.941406 0 10.777344 4.835937 10.777344 10.777344 0 5.945312-4.835938 10.78125-10.777344 10.78125zm0 0"/><path d="m89.527344 240.039062c-6.925782 21.394532-1.6875 44.921876 13.667968 61.394532 1.792969 1.925781 4.453126 2.785156 7.035157 2.277344 7.757812-1.527344 15.84375-1.042969 23.394531 1.402343 7.546875 2.441407 14.386719 6.789063 19.773438 12.570313 1.457031 1.5625 3.476562 2.421875 5.566406 2.421875.488281 0 .980468-.046875 1.46875-.144531 22.097656-4.351563 40.125-20.34375 47.054687-41.742188 10.527344-32.519531-7.367187-67.542969-39.886719-78.070312-32.519531-10.527344-67.542968 7.367187-78.074218 39.890624zm73.386718-25.414062c24.539063 7.945312 38.039063 34.371094 30.09375 58.910156-4.820312 14.890625-16.773437 26.316406-31.6875 30.578125-6.574218-6.085937-14.449218-10.707031-23.011718-13.476562-6.1875-2.003907-12.648438-3.011719-19.113282-3.011719-2.480468 0-4.964843.148438-7.429687.445312-9.589844-12.195312-12.582031-28.457031-7.757813-43.347656 7.941407-24.539062 34.367188-38.039062 58.90625-30.097656zm0 0"/><path d="m149.558594 285.289062c14.332031 0 25.996094-11.660156 25.996094-25.996093 0-14.332031-11.664063-25.992188-25.996094-25.992188-14.332032 0-25.996094 11.660157-25.996094 25.992188 0 14.335937 11.664062 25.996093 25.996094 25.996093zm0-36.773437c5.945312 0 10.78125 4.835937 10.78125 10.777344 0 5.945312-4.835938 10.78125-10.78125 10.78125-5.941406 0-10.777344-4.835938-10.777344-10.78125 0-5.941407 4.835938-10.777344 10.777344-10.777344zm0 0"/><path d="m408.464844 73.167969h15.914062c2.683594 0 5.171875-1.417969 6.542969-3.726563 1.371094-2.3125 1.421875-5.171875.132813-7.53125-10.285157-18.828125-26.441407-33.550781-48.019532-43.761718-3.796875-1.796876-8.335937-.175782-10.132812 3.625-1.796875 3.796874-.175782 8.332031 3.621094 10.128906 13.988281 6.617187 25.285156 15.351562 33.734374 26.046875h-23.671874c-3.527344 0-6.59375 2.429687-7.402344 5.863281-.746094 3.160156.597656 6.410156 3.273437 8.136719 1.539063 1.019531 49.214844 33.167969 56.269531 77.171875l-31.074218-10.152344c-3.183594-1.039062-6.675782.125-8.59375 2.871094-1.921875 2.746094-1.824219 6.425781.246094 9.058594.308593.394531 27.945312 36.011718 33.308593 74.226562l-24.101562-11.257812c-3.164063-1.476563-6.917969-.617188-9.121094 2.089843-2.203125 2.703125-2.285156 6.558594-.195313 9.355469.480469.644531 45.433594 61.949219 29.015626 129.0625l-18.453126-17.308594c-2.394531-2.246094-5.957031-2.699218-8.839843-1.132812-2.882813 1.566406-4.433594 4.808594-3.851563 8.035156.136719.75 11.75 67.097656-9.828125 105.433594l-5.285156-24.578125c-.765625-3.550781-3.964844-6.078125-7.570313-6.007813-3.632812.0625-6.714843 2.6875-7.359374 6.265625-.097657.550781-9.648438 51.933594-40.769532 69.214844l-6.671875-14.910156c-1.226562-2.738281-3.945312-4.5-6.945312-4.5h-.5c-1.28125 0-2.539063.324219-3.660157.9375-24.632812 13.511719-52.554687 20.664062-80.742187 20.675781-.027344 0-.054687 0-.082031 0-28.421875 0-56.542969-7.152344-81.332032-20.683594-1.863281-1.015625-4.066406-1.207031-6.078124-.53125-2.007813.679688-3.644532 2.164063-4.511719 4.101563l-6.671875 14.90625c-31.027344-17.265625-40.675782-68.667969-40.773438-69.214844-.640625-3.574219-3.722656-6.199219-7.355468-6.261719-.046876 0-.089844-.003906-.136719-.003906-3.578125 0-6.679688 2.5-7.433594 6.011719l-5.28125 24.550781c-5.691406-10.140625-9.566406-23.140625-11.5625-38.84375-.53125-4.167969-4.335937-7.117188-8.507813-6.585938-4.167968.53125-7.117187 4.339844-6.585937 8.507813 3.382813 26.582031 11.863281 46.824219 25.210937 60.175781 1.96875 1.96875 4.863282 2.707032 7.535157 1.917969s4.699219-2.976563 5.285156-5.699219l2.5625-11.917968c8.144531 20.328124 22.953125 45.363281 48.25 54.605468.859375.3125 1.742187.460938 2.609375.460938 2.921875 0 5.6875-1.6875 6.945312-4.5l6.511719-14.546875c25.175781 12.296875 53.117188 18.765625 81.320313 18.765625h.089844c28.132812-.011719 56.027343-6.546875 81.152343-18.957032l6.597657 14.738282c1.628906 3.644531 5.804687 5.40625 9.554687 4.039062 25.296875-9.242187 40.101563-34.277344 48.246094-54.605468l2.566406 11.917968c.582031 2.722656 2.613281 4.910156 5.285156 5.699219 2.667969.789063 5.5625.050781 7.53125-1.917969 28.054688-28.058594 28.386719-80.652344 25.980469-110.109375l12.125 11.375c1.875 1.761719 4.515625 2.453125 7.011719 1.84375 2.5-.613281 4.519531-2.445312 5.371093-4.871093 11.507813-32.789063 10.339844-69.949219-3.367187-107.457032-3.53125-9.65625-7.449219-18.15625-11.09375-25.1875l13.191406 6.164063c2.359375 1.101562 5.113281.917969 7.304688-.476563 2.195312-1.394531 3.523437-3.816406 3.523437-6.417968 0-29.757813-13.964844-58.96875-24.847656-77.21875l20.964844 6.851562c2.316406.757812 4.855468.359375 6.828125-1.074219 1.972656-1.433593 3.140625-3.722656 3.140625-6.160156 0-38.578125-27.183594-69.644531-46.34375-86.722656zm0 0"/><path d="m47.382812 392.519531c4.199219 0 7.605469-3.40625 7.605469-7.609375 0-22.539062 3.121094-40.207031 3.253907-40.949218.082031-.441407.121093-.894532.121093-1.347657 0-3.03125-1.800781-5.773437-4.585937-6.980469-2.785156-1.203124-6.015625-.644531-8.230469 1.433594l-18.460937 17.320313c-6.558594-26.5625-4.363282-55.203125 6.5625-85.324219 9.484374-26.136719 22.339843-43.585938 22.464843-43.75 2.085938-2.796875 2.007813-6.652344-.195312-9.355469-2.203125-2.707031-5.960938-3.570312-9.121094-2.089843l-24.09375 11.257812c5.371094-38.140625 32.992187-73.835938 33.300781-74.226562 2.066406-2.632813 2.167969-6.3125.246094-9.058594s-5.414062-3.910156-8.59375-2.871094l-31.074219 10.152344c7.128907-44.480469 55.773438-76.847656 56.296875-77.191406 2.816406-1.839844 4.09375-5.3125 3.132813-8.539063-.960938-3.226563-3.925781-5.441406-7.292969-5.441406h-23.714844c10.417969-13.300781 25.03125-23.328125 44.324219-30.464844 22-8.140625 50.238281-12.269531 83.921875-12.269531h108.808594c27.621094 0 51.640625 2.773437 71.398437 8.242187 4.054688 1.125 8.242188-1.25 9.363281-5.300781 1.117188-4.050781-1.253906-8.242188-5.304687-9.363281-21.078125-5.832031-46.464844-8.792969-75.457031-8.792969h-108.808594c-35.492188 0-65.503906 4.445312-89.199219 13.210938-27.605469 10.210937-47.722656 26.597656-59.796875 48.699218-1.289062 2.359375-1.238281 5.21875.132813 7.53125 1.371093 2.308594 3.859375 3.726563 6.542969 3.726563h15.804687c-18.980469 16.910156-46.234375 47.949219-46.234375 86.726562 0 2.4375 1.167969 4.730469 3.140625 6.160157 1.972656 1.429687 4.511719 1.828124 6.828125 1.074218l20.964844-6.851562c-10.882813 18.25-24.847656 47.457031-24.847656 77.21875 0 2.601562 1.328124 5.019531 3.523437 6.417968 2.195313 1.394532 4.949219 1.574219 7.304687.472657l13.1875-6.160157c-3.644531 7.03125-7.558593 15.53125-11.089843 25.1875-13.707031 37.507813-14.875 74.664063-3.367188 107.453126.851563 2.429687 2.871094 4.261718 5.371094 4.875 2.496094.609374 5.136719-.085938 7.011719-1.84375l12.171875-11.417969c-.527344 6.527343-.925781 14.183593-.925781 22.429687 0 4.203125 3.40625 7.609375 7.609374 7.609375zm0 0"/><path d="m251.921875 397.257812c4.203125 0 7.605469-3.40625 7.605469-7.605468v-17.703125c13.914062-3.421875 24.269531-15.996094 24.269531-30.949219 0-4.203125-3.40625-7.609375-7.609375-7.609375s-7.605469 3.40625-7.605469 7.609375c0 9.183594-7.476562 16.65625-16.660156 16.65625-9.1875 0-16.660156-7.472656-16.660156-16.65625 0-4.203125-3.40625-7.609375-7.609375-7.609375s-7.605469 3.40625-7.605469 7.609375c0 9.183594-7.476563 16.65625-16.660156 16.65625-9.1875 0-16.660157-7.472656-16.660157-16.65625 0-4.203125-3.40625-7.609375-7.609374-7.609375-4.199219 0-7.605469 3.40625-7.605469 7.609375 0 14.953125 10.351562 27.527344 24.265625 30.949219v17.703125c0 4.199218 3.40625 7.605468 7.609375 7.605468s7.609375-3.40625 7.609375-7.605468v-17.707032c6.589844-1.621093 12.386718-5.289062 16.65625-10.300781 4.269531 5.011719 10.066406 8.679688 16.660156 10.300781v17.707032c0 4.199218 3.40625 7.605468 7.609375 7.605468zm0 0"/><path d="m171.285156 186.984375c1.585938.410156 3.179688.605469 4.75.605469 8.464844 0 16.207032-5.703125 18.417969-14.269532 2.621094-10.152343-3.503906-20.546874-13.660156-23.167968l-51.5625-13.3125c-4.921875-1.269532-10.039063-.550782-14.417969 2.03125-4.375 2.578125-7.484375 6.710937-8.753906 11.628906-2.621094 10.15625 3.507812 20.546875 13.660156 23.171875zm-50.492187-32.679687c.339843-1.328126 1.242187-2.027344 1.75-2.328126.507812-.296874 1.558593-.746093 2.882812-.402343l51.5625 13.3125c2.03125.523437 3.257813 2.601562 2.734375 4.632812-.527344 2.027344-2.601562 3.253907-4.632812 2.730469l-51.566406-13.3125c-2.03125-.523438-3.257813-2.601562-2.730469-4.632812zm0 0"/><path d="m279.273438 187.589844c1.570312 0 3.164062-.195313 4.75-.605469l51.566406-13.316406c4.917968-1.269531 9.046875-4.378907 11.628906-8.753907 2.578125-4.375 3.300781-9.496093 2.03125-14.414062s-4.378906-9.050781-8.757812-11.628906c-4.375-2.582032-9.496094-3.304688-14.414063-2.03125l-51.5625 13.3125c-4.917969 1.269531-9.050781 4.378906-11.628906 8.753906-2.582031 4.378906-3.304688 9.496094-2.03125 14.414062 2.210937 8.566407 9.953125 14.269532 18.417969 14.269532zm-3.28125-20.953125c.300781-.507813 1-1.410157 2.328124-1.753907l51.5625-13.3125c.339844-.085937.65625-.121093.957032-.121093.867187 0 1.546875.304687 1.925781.527343.503906.300782 1.40625.996094 1.75 2.324219s-.105469 2.375-.40625 2.882813c-.296875.507812-.996094 1.410156-2.324219 1.753906l-51.5625 13.3125c-1.332031.34375-2.378906-.109375-2.882812-.40625-.507813-.300781-1.410156-1-1.753906-2.324219-.34375-1.328125.109374-2.375.40625-2.882812zm0 0"/></svg>