<svg height="512pt" viewBox="0 0 512 512.00349" width="512pt" xmlns="http://www.w3.org/2000/svg" fill="white"><path d="m170.667969 230.402344h-162.132813c-3.566406 0-6.757812-2.226563-8.003906-5.570313-1.238281-3.355469-.265625-7.117187 2.449219-9.4375l59.734375-51.199219c1.542968-1.324218 3.515625-2.058593 5.554687-2.058593h102.398438c4.710937 0 8.535156 3.824219 8.535156 8.535156v51.199219c0 4.710937-3.816406 8.53125-8.535156 8.53125zm-139.066407-17.066406h130.535157v-34.132813h-90.710938zm0 0"/><path d="m452.269531 349.871094c-1.101562 0-2.210937-.214844-3.269531-.648438-3.191406-1.324218-5.261719-4.4375-5.261719-7.886718v-119.464844c0-2.261719.894531-4.4375 2.5-6.035156l51.199219-51.199219c2.441406-2.441407 6.101562-3.175781 9.300781-1.851563 3.191407 1.324219 5.265625 4.4375 5.265625 7.886719v119.464844c0 2.261719-.898437 4.4375-2.5 6.03125l-51.203125 51.203125c-1.628906 1.628906-3.804687 2.5-6.03125 2.5zm8.535157-124.46875v95.335937l34.132812-34.132812v-95.335938zm0 0"/><path d="m290.136719 512.003906c-1.101563 0-2.210938-.214844-3.269531-.648437-3.191407-1.324219-5.265626-4.4375-5.265626-7.886719v-162.132812c0-4.710938 3.824219-8.53125 8.535157-8.53125h51.199219c4.710937 0 8.535156 3.820312 8.535156 8.53125v110.933593c0 2.261719-.898438 4.4375-2.5 6.035157l-51.203125 51.199218c-1.628907 1.628906-3.804688 2.5-6.03125 2.5zm8.53125-162.132812v133l34.136719-34.132813v-98.867187zm0 0"/><path d="m290.136719 230.402344c-1.101563 0-2.210938-.210938-3.269531-.648438-3.191407-1.320312-5.265626-4.4375-5.265626-7.882812v-162.132813c0-2.261719.898438-4.4375 2.5-6.035156l51.203126-51.199219c2.4375-2.4492185 6.101562-3.175781 9.300781-1.851562 3.191406 1.324218 5.265625 4.4375 5.265625 7.882812v162.136719c0 2.257813-.898438 4.4375-2.5 6.03125l-51.203125 51.199219c-1.628907 1.628906-3.804688 2.5-6.03125 2.5zm8.53125-167.132813v138l34.136719-34.132812v-138zm0 0"/><path d="m452.269531 230.402344h-162.132812c-3.449219 0-6.5625-2.082032-7.886719-5.265625-1.320312-3.191407-.585938-6.859375 1.851562-9.300781l51.203126-51.199219c1.601562-1.605469 3.769531-2.5 6.03125-2.5h162.132812c3.449219 0 6.5625 2.082031 7.886719 5.265625 1.320312 3.191406.585937 6.859375-1.851563 9.300781l-51.203125 51.199219c-1.59375 1.605468-3.769531 2.5-6.03125 2.5zm-141.535156-17.066406h138.003906l34.132813-34.132813h-138.003906zm0 0"/><path d="m290.136719 68.269531h-119.46875c-3.566407 0-6.757813-2.226562-8.003907-5.570312-1.234374-3.355469-.261718-7.117188 2.449219-9.4375l59.734375-51.203125c1.542969-1.320313 3.515625-2.05468775 5.554688-2.05468775h110.933594c3.449218 0 6.5625 2.08203175 7.886718 5.26562475 1.320313 3.191407.585938 6.859375-1.851562 9.300781l-51.203125 51.199219c-1.59375 1.605469-3.769531 2.5-6.03125 2.5zm-96.402344-17.066406h92.871094l34.132812-34.132813h-87.179687zm0 0"/><path d="m290.136719 512.003906h-119.46875c-4.707031 0-8.53125-3.824218-8.53125-8.535156v-153.597656h-153.601563c-4.710937 0-8.53124975-3.824219-8.53124975-8.535156v-119.464844c0-4.710938 3.82031275-8.535156 8.53124975-8.535156h153.601563v-153.597657c0-4.710937 3.824219-8.535156 8.53125-8.535156h119.46875c4.710937 0 8.53125 3.824219 8.53125 8.535156v153.597657h153.601562c4.710938 0 8.535157 3.824218 8.535157 8.535156v119.464844c0 4.710937-3.824219 8.535156-8.535157 8.535156h-153.601562v153.597656c0 4.710938-3.8125 8.535156-8.53125 8.535156zm-110.933594-17.066406h102.398437v-153.601562c0-4.710938 3.824219-8.53125 8.535157-8.53125h153.601562v-102.402344h-153.601562c-4.710938 0-8.535157-3.820313-8.535157-8.53125v-153.601563h-102.398437v153.601563c0 4.710937-3.824219 8.53125-8.535156 8.53125h-153.597657v102.402344h153.597657c4.710937 0 8.535156 3.820312 8.535156 8.53125zm0 0"/></svg>