<?xml version="1.0" encoding="iso-8859-1"?>
<!-- Generator: Adobe Illustrator 19.0.0, SVG Export Plug-In . SVG Version: 6.00 Build 0)  -->
<svg version="1.1" id="Capa_1" xmlns="http://www.w3.org/2000/svg" xmlns:xlink="http://www.w3.org/1999/xlink" x="0px" y="0px"
	 viewBox="0 0 512.001 512.001" style="enable-background:new 0 0 512.001 512.001;" xml:space="preserve" fill="white">
<g>
	<g>
		<path d="M69.998,100.008c-5.53,0-9.99,4.452-9.99,9.99c0,5.143,3.869,9.43,8.99,9.938c5.929,0.589,10.99-4.031,10.99-9.938
			C79.988,104.468,75.536,100.008,69.998,100.008z"/>
	</g>
</g>
<g>
	<g>
		<path d="M179.995,40c-32.719,0-64.569,11.57-89.684,32.579c-4.236,3.543-4.798,9.85-1.254,14.086
			c3.544,4.236,9.851,4.801,14.086,1.254c21.523-18.004,48.817-27.919,76.852-27.919c66.166,0,119.997,53.831,119.997,119.997
			c0,66.166-53.831,119.997-119.997,119.997S59.998,246.162,59.998,179.996c0-10.391,1.332-20.7,3.958-30.645
			c1.41-5.34-1.775-10.812-7.115-12.223c-5.341-1.405-10.812,1.776-12.222,7.115c-3.066,11.611-4.621,23.64-4.621,35.753
			c0,77.194,62.802,139.996,139.996,139.996s139.996-62.802,139.996-139.996S257.189,40,179.995,40z"/>
	</g>
</g>
<g>
	<g>
		<path d="M497.338,426.638L386.56,315.85c-9.219-9.219-22.993-11.166-34.143-5.854l-25.707-25.707
			c21.797-30.548,33.28-66.416,33.28-104.293c0-99.249-80.745-179.995-179.995-179.995S0,80.747,0,179.996
			s80.746,179.995,179.995,179.995c37.878,0,73.745-11.483,104.293-33.281l25.695,25.695c-5.215,10.896-3.564,24.725,5.868,34.156
			l110.785,110.774c19.53,19.544,51.158,19.559,70.7,0.005C516.885,477.805,516.893,446.178,497.338,426.638z M179.995,339.992
			c-88.222,0-159.996-71.773-159.996-159.996C19.999,91.774,91.773,20,179.995,20s159.996,71.773,159.996,159.996
			C339.991,268.346,268.444,339.992,179.995,339.992z M300.003,314.138c4.967-4.448,9.689-9.169,14.137-14.137l22.919,22.919
			l-14.137,14.138L300.003,314.138z M483.194,483.2c-11.72,11.727-30.685,11.734-42.415-0.003L329.992,372.42
			c-3.907-3.908-3.908-10.239,0-14.147l28.279-28.279c0.001-0.001,0.001-0.002,0.002-0.002c3.902-3.897,10.246-3.896,14.145,0.001
			l110.779,110.79C494.924,452.502,494.935,471.465,483.194,483.2z"/>
	</g>
</g>
<g>
	<g>
		<path d="M179.995,79.999c-44.111,0-79.998,35.887-79.998,79.998c0,35.69,49.864,93.543,72.86,117.001
			c1.881,1.916,4.453,2.996,7.138,2.996c2.685,0,5.257-1.08,7.138-2.996c23.677-24.152,72.86-81.409,72.86-117.001
			C259.993,115.886,224.106,79.999,179.995,79.999z M179.993,255.468c-21.609-23.41-59.996-70.229-59.996-95.471
			c0-33.083,26.915-59.998,59.998-59.998c33.083,0,59.998,26.915,59.998,59.998C239.993,185.208,201.602,232.045,179.993,255.468z"
			/>
	</g>
</g>
<g>
	<g>
		<path d="M179.995,119.998c-22.055,0-39.999,17.944-39.999,39.999c0,22.055,17.944,39.999,39.999,39.999
			c22.055,0,39.999-17.944,39.999-39.999C219.994,137.941,202.05,119.998,179.995,119.998z M179.995,179.996
			c-11.028,0-19.999-8.972-19.999-19.999c0-11.028,8.972-19.999,19.999-19.999c11.028,0,20,8.972,20,19.999
			C199.995,171.024,191.023,179.996,179.995,179.996z"/>
	</g>
</g>
<g>
</g>
<g>
</g>
<g>
</g>
<g>
</g>
<g>
</g>
<g>
</g>
<g>
</g>
<g>
</g>
<g>
</g>
<g>
</g>
<g>
</g>
<g>
</g>
<g>
</g>
<g>
</g>
<g>
</g>
</svg>
